<svg xmlns="http://www.w3.org/2000/svg">

    <symbol id="boton" viewBox="0 0 483 517">
        <g transform="translate(0.000000,517.000000) scale(0.100000,-0.100000)">
            <path d="M2210 5119 c-673 -69 -1254 -430 -1707 -1059 -186 -257 -308 -523
-388 -841 -140 -557 -119 -1084 63 -1575 160 -429 490 -864 860 -1134 331
-241 681 -392 1042 -449 173 -28 228 -32 390 -32 590 1 1127 224 1577 654 342
327 600 801 707 1297 49 228 71 631 47 872 -26 269 -102 582 -186 773 -150
339 -317 594 -536 815 -450 456 -1022 695 -1648 689 -75 -1 -174 -6 -221 -10z
m527 -1341 c62 -37 90 -67 753 -808 249 -279 250 -280 250 -399 0 -62 -5 -87
-25 -127 -16 -31 -162 -200 -411 -474 -581 -639 -564 -625 -704 -624 -57 0
-85 5 -117 22 -102 53 -163 152 -163 265 0 115 13 134 309 451 97 104 178 193
179 198 3 5 -316 8 -786 8 -776 -2 -790 -1 -829 19 -61 31 -96 64 -127 121
-76 140 -18 322 126 394 l52 26 788 0 c601 0 788 3 788 12 0 6 -37 50 -83 97
-135 141 -345 373 -370 411 -67 99 -63 243 8 337 63 81 138 116 239 109 55 -4
79 -12 123 -38z" />
        </g>
    </symbol>
    <symbol id="menu" viewBox="0 0 522 478">
        <g transform="translate(0,478) scale(0.1,-0.1)">
            <path
                d="M2410 4620 l-2025 -5 -67 -33 c-111 -54 -176 -149 -200 -292 -33 -189 56 -373 216 -447 l61 -28 2190 -3 c1608 -2 2206 0 2250 8 109 21 203 83 252 167 130 222 44 521 -173 602 -100 38 -25 37 -2504 31z" />
            <path
                d="M465 2803 c-130 -20 -169 -38 -240 -109 -93 -94 -132 -239 -106 -389 23 -132 92 -223 209 -278 l67 -32 2225 1 c2076 0 2228 1 2270 17 152 58 243 187 257 364 5 60 2 85 -20 155 -31 97 -68 154 -129 195 -89 61 -113 65 -373 74 -222 6 -4115 9 -4160 2z" />
            <path
                d="M402 959 c-145 -24 -251 -136 -282 -297 -42 -211 62 -409 250 -478 41 -15 232 -17 2195 -21 1503 -4 2176 -2 2237 5 167 21 280 113 328 270 64 205 -33 429 -218 504 l-57 23 -2200 1 c-1237 1 -2223 -2 -2253 -7z" />
        </g>
    </symbol>
    <symbol id="usuario" viewBox="0 0 478 522">
        <g transform="translate(0,522) scale(0.1,-0.1)">
            <path
                d="M2165 5189 c-154 -22 -208 -33 -313 -60 -427 -112 -839 -365 -1147 -706 -436 -482 -659 -1040 -682 -1708 -23 -660 185 -1301 585 -1805 91 -113 289 -315 388 -392 652 -515 1481 -641 2229 -341 551 221 1009 664 1288 1244 134 279 227 655 257 1039 20 264 -13 614 -85 894 -94 360 -289 733 -532 1017 -179 207 -438 421 -666 547 -180 100 -481 209 -677 246 -180 34 -498 46 -645 25z m565 -193 c504 -104 847 -286 1198 -636 115 -115 282 -336 355 -470 13 -25 37 -70 54 -100 97 -180 207 -514 237 -720 16 -103 36 -362 36 -455 -1 -360 -96 -799 -237 -1094 -75 -154 -263 -460 -284 -461 -3 0 -16 30 -28 67 -26 79 -88 189 -139 245 -82 91 -233 176 -360 203 -107 22 -2220 22 -2326 0 -226 -48 -407 -219 -480 -455 -10 -30 -20 -61 -22 -69 -9 -29 -186 230 -259 379 -25 52 -51 103 -56 114 -37 66 -125 326 -159 471 -57 242 -65 320 -65 605 1 315 10 397 81 695 65 277 242 618 461 890 144 179 375 384 564 502 246 154 568 267 854 302 116 14 483 6 575 -13z" />
            <path
                d="M2280 4263 c-263 -44 -491 -186 -631 -396 -126 -188 -168 -325 -176 -562 -6 -191 13 -304 76 -458 222 -545 834 -753 1320 -450 553 345 635 1184 160 1628 -125 117 -268 189 -444 226 -83 17 -237 23 -305 12z" />
        </g>
    </symbol>
    <symbol id="buscar" viewBox="0 0 483 517">
        <g transform="translate(0,517) scale(0.1,-0.1)">
            <path
                d="M1840 5135 c-128 -16 -197 -31 -313 -66 -336 -103 -623 -280 -885 -549 -277 -283 -466 -631 -567 -1045 -56 -227 -60 -268 -59 -605 0 -280 3 -329 23 -440 63 -356 167 -621 355 -905 172 -260 326 -417 611 -620 48 -34 203 -120 290 -160 116 -55 320 -119 475 -151 123 -25 155 -27 360 -28 209 0 235 2 363 28 208 42 341 87 510 172 128 65 282 163 387 247 41 33 80 64 87 69 8 7 24 -4 50 -33 21 -24 63 -70 94 -103 30 -34 75 -83 99 -111 25 -27 67 -75 95 -105 113 -125 144 -159 230 -255 50 -55 111 -122 136 -150 25 -27 63 -70 85 -95 65 -77 139 -146 175 -164 83 -42 189 -29 259 31 73 63 101 149 76 235 -23 79 -37 97 -406 502 -30 33 -88 97 -129 141 -93 100 -142 153 -256 280 -49 55 -108 119 -130 143 -22 24 -42 48 -43 53 -2 5 17 40 42 78 159 242 268 514 325 812 43 226 52 314 52 515 0 667 -237 1254 -690 1704 -250 249 -492 394 -851 509 -231 74 -582 101 -850 66z m533 -525 c374 -65 669 -232 935 -530 146 -163 247 -328 328 -535 179 -459 163 -1055 -42 -1493 -228 -489 -650 -829 -1179 -949 -63 -14 -122 -18 -280 -18 -191 1 -205 2 -325 33 -594 152 -1037 562 -1230 1140 -61 182 -82 318 -87 580 -6 240 3 323 53 527 24 100 28 113 67 215 108 285 334 570 595 753 345 243 775 345 1165 277z" />
        </g>
    </symbol>
    <symbol id="microfono" viewBox="0 0 390 640">
        <g transform="translate(0,640) scale(0.1,-0.1)">
            <path
                d="M1760 6355 c-129 -26 -370 -131 -435 -190 -166 -149 -281 -287 -344 -413 -18 -35 -48 -114 -67 -175 -72 -227 -67 -147 -71 -1257 -3 -870 -2 -1021 12 -1127 43 -333 152 -580 336 -760 109 -106 197 -173 291 -220 165 -84 288 -114 463 -115 294 0 534 104 767 334 120 119 265 375 307 543 24 97 31 323 31 1135 0 470 -3 920 -6 1000 -12 315 -53 462 -213 759 -44 81 -173 218 -281 298 -116 85 -263 151 -410 184 -101 22 -281 24 -380 4z m328 -351 c267 -54 488 -267 591 -569 23 -68 33 -122 41 -219 13 -170 14 -1854 0 -1999 -17 -172 -78 -328 -186 -472 -99 -133 -179 -198 -313 -255 -81 -35 -167 -50 -281 -50 -140 0 -204 15 -320 72 -88 44 -119 66 -191 138 -77 75 -93 98 -143 199 -62 128 -77 173 -101 311 -14 85 -16 208 -13 1150 4 1178 -2 1085 77 1244 82 166 121 217 227 297 189 142 402 196 612 153z" />
            <path
                d="M125 3713 c-90 -47 -105 -86 -105 -265 0 -249 49 -537 142 -828 64 -202 179 -429 294 -577 46 -60 95 -124 108 -143 36 -53 179 -186 296 -274 253 -192 556 -316 840 -344 l65 -7 3 -447 2 -447 -337 -3 -338 -3 -46 -27 c-53 -31 -75 -61 -87 -115 -17 -78 21 -146 103 -184 38 -18 84 -19 883 -19 917 0 868 -3 923 57 38 41 49 66 49 115 0 72 -53 141 -129 166 -23 8 -139 12 -362 12 l-329 0 0 443 0 443 162 27 c263 44 450 119 663 265 123 84 275 200 275 210 0 4 26 34 57 67 159 169 268 326 345 497 28 62 55 118 59 123 18 23 82 206 119 339 58 209 90 435 90 635 0 141 -2 167 -20 201 -24 47 -62 75 -123 91 -61 17 -111 1 -162 -51 l-40 -41 -7 -192 c-10 -314 -41 -499 -115 -712 -75 -213 -197 -430 -315 -561 -78 -87 -215 -213 -303 -279 -65 -49 -277 -157 -361 -184 -102 -34 -380 -81 -475 -81 -135 0 -409 48 -524 92 -88 33 -300 147 -364 195 -94 71 -289 266 -297 298 -3 14 -10 22 -15 19 -5 -3 -9 -1 -9 5 0 6 -11 20 -24 33 -37 34 -128 200 -174 313 -56 139 -69 181 -108 335 -33 133 -39 186 -73 618 -9 118 -22 144 -91 180 -51 26 -103 28 -145 5z" />
        </g>
    </symbol>
</svg>